<mxfile host="65bd71144e" modified="2020-11-23T14:13:02.012Z" agent="5.0 (X11; Linux x86_64) AppleWebKit/537.36 (KHTML, like Gecko) Code/1.51.1 Chrome/83.0.4103.122 Electron/9.3.3 Safari/537.36" etag="yawW9MjnXeyLbDIissKV" version="13.6.5">
    <diagram id="6a731a19-8d31-9384-78a2-239565b7b9f0" name="physical">
        <mxGraphModel dx="1967" dy="612" grid="1" gridSize="10" guides="1" tooltips="1" connect="1" arrows="1" fold="1" page="1" pageScale="1" pageWidth="1169" pageHeight="827" background="#FFFFFF" math="0" shadow="0" extFonts="Rubik^https://fonts.googleapis.com/css?family=Rubik|Roboto^https://fonts.googleapis.com/css?family=Roboto">
            <root>
                <mxCell id="0"/>
                <mxCell id="1" parent="0"/>
                <mxCell id="6Xb1M5ofrw1g_zjlxSkY-10" style="edgeStyle=orthogonalEdgeStyle;rounded=0;orthogonalLoop=1;jettySize=auto;html=1;endArrow=blockThin;endFill=1;strokeColor=#000000;strokeWidth=1;fontFamily=Helvetica;fontColor=#000000;" parent="1" source="nqhKKtfY9AY7LaAZ8PM6-1782" target="nqhKKtfY9AY7LaAZ8PM6-1787" edge="1">
                    <mxGeometry relative="1" as="geometry"/>
                </mxCell>
                <mxCell id="nqhKKtfY9AY7LaAZ8PM6-1782" value="&lt;div style=&quot;font-size: 16px&quot;&gt;Raspberry Pi 4&lt;br&gt;&lt;/div&gt;" style="rounded=1;whiteSpace=wrap;html=1;shadow=0;glass=0;comic=0;strokeColor=#000000;strokeWidth=1;fillColor=#ffffff;gradientColor=none;fontFamily=Helvetica;FType=g;fontSize=13;fontColor=#000000;" parent="1" vertex="1">
                    <mxGeometry x="560.0000000000001" y="370.99" width="171.67" height="82.67" as="geometry"/>
                </mxCell>
                <mxCell id="nqhKKtfY9AY7LaAZ8PM6-1822" style="edgeStyle=orthogonalEdgeStyle;rounded=0;orthogonalLoop=1;jettySize=auto;html=1;entryX=1;entryY=0.5;entryDx=0;entryDy=0;endArrow=blockThin;endFill=1;strokeColor=#000000;strokeWidth=1;fontFamily=Helvetica;fontSize=13;fontColor=#000000;" parent="1" source="nqhKKtfY9AY7LaAZ8PM6-1783" target="nqhKKtfY9AY7LaAZ8PM6-1782" edge="1">
                    <mxGeometry relative="1" as="geometry"/>
                </mxCell>
                <mxCell id="nqhKKtfY9AY7LaAZ8PM6-1783" value="&lt;font style=&quot;font-size: 13px&quot;&gt;Raspberry Pi+ GPS&lt;/font&gt;" style="rounded=0;whiteSpace=wrap;html=1;shadow=0;glass=0;comic=0;strokeColor=#000000;strokeWidth=1;fillColor=#ffffff;gradientColor=none;fontFamily=Helvetica;fontSize=13;fontColor=#000000;" parent="1" vertex="1">
                    <mxGeometry x="810" y="381.33" width="137.51" height="62" as="geometry"/>
                </mxCell>
                <mxCell id="nqhKKtfY9AY7LaAZ8PM6-1787" value="&lt;div&gt;&lt;font style=&quot;font-size: 13px&quot;&gt;NETGEAR &lt;br&gt;&lt;/font&gt;&lt;/div&gt;&lt;div&gt;&lt;font style=&quot;font-size: 13px&quot;&gt;Switch&lt;/font&gt;&lt;/div&gt;" style="rounded=0;whiteSpace=wrap;html=1;shadow=0;glass=0;comic=0;strokeColor=#000000;strokeWidth=1;fillColor=#ffffff;gradientColor=none;fontFamily=Helvetica;fontSize=13;fontColor=#000000;" parent="1" vertex="1">
                    <mxGeometry x="245" y="380.98999999999995" width="180" height="62.67" as="geometry"/>
                </mxCell>
                <mxCell id="nqhKKtfY9AY7LaAZ8PM6-1791" style="edgeStyle=orthogonalEdgeStyle;rounded=0;orthogonalLoop=1;jettySize=auto;html=1;endArrow=blockThin;endFill=1;fontFamily=Helvetica;fontSize=13;fontColor=#000000;strokeColor=#000000;" parent="1" source="nqhKKtfY9AY7LaAZ8PM6-1790" target="nqhKKtfY9AY7LaAZ8PM6-1787" edge="1">
                    <mxGeometry relative="1" as="geometry"/>
                </mxCell>
                <mxCell id="nqhKKtfY9AY7LaAZ8PM6-1790" value="&lt;div style=&quot;font-size: 14px&quot;&gt;Basler - Camera (x4)&lt;br&gt;&lt;/div&gt;" style="rounded=0;whiteSpace=wrap;html=1;shadow=0;glass=0;comic=0;strokeColor=#000000;strokeWidth=1;fillColor=#ffffff;gradientColor=none;fontFamily=Helvetica;fontSize=13;fontColor=#000000;" parent="1" vertex="1">
                    <mxGeometry x="-39" y="378.49" width="150" height="67.67" as="geometry"/>
                </mxCell>
                <mxCell id="nqhKKtfY9AY7LaAZ8PM6-1794" style="edgeStyle=orthogonalEdgeStyle;rounded=0;orthogonalLoop=1;jettySize=auto;html=1;fillColor=#ffe6cc;strokeColor=#FF9933;strokeWidth=2;endArrow=blockThin;endFill=1;fontFamily=Helvetica;fontSize=13;fontColor=#000000;" parent="1" source="nqhKKtfY9AY7LaAZ8PM6-1792" target="nqhKKtfY9AY7LaAZ8PM6-1793" edge="1">
                    <mxGeometry relative="1" as="geometry"/>
                </mxCell>
                <mxCell id="nqhKKtfY9AY7LaAZ8PM6-1792" value="&lt;div style=&quot;font-size: 14px&quot;&gt;LionTec Battery - 24V&lt;br style=&quot;font-size: 13px&quot;&gt;&lt;/div&gt;" style="rounded=0;whiteSpace=wrap;html=1;shadow=0;glass=0;comic=0;strokeColor=#000000;strokeWidth=1;fillColor=#ffffff;gradientColor=none;fontFamily=Helvetica;fontSize=13;fontColor=#000000;" parent="1" vertex="1">
                    <mxGeometry x="-39" y="210" width="180" height="60" as="geometry"/>
                </mxCell>
                <mxCell id="nqhKKtfY9AY7LaAZ8PM6-1795" style="edgeStyle=orthogonalEdgeStyle;rounded=0;orthogonalLoop=1;jettySize=auto;html=1;endArrow=blockThin;endFill=1;strokeColor=#FF9933;strokeWidth=2;fontFamily=Helvetica;fontSize=13;fontColor=#000000;" parent="1" source="nqhKKtfY9AY7LaAZ8PM6-1793" target="nqhKKtfY9AY7LaAZ8PM6-1787" edge="1">
                    <mxGeometry relative="1" as="geometry"/>
                </mxCell>
                <mxCell id="nqhKKtfY9AY7LaAZ8PM6-1796" style="edgeStyle=orthogonalEdgeStyle;rounded=0;orthogonalLoop=1;jettySize=auto;html=1;entryX=0.5;entryY=0;entryDx=0;entryDy=0;endArrow=blockThin;endFill=1;strokeColor=#FF9933;strokeWidth=2;fontFamily=Helvetica;fontSize=13;fontColor=#000000;" parent="1" source="nqhKKtfY9AY7LaAZ8PM6-1793" target="nqhKKtfY9AY7LaAZ8PM6-1790" edge="1">
                    <mxGeometry relative="1" as="geometry">
                        <Array as="points">
                            <mxPoint x="300" y="310"/>
                            <mxPoint x="35" y="310"/>
                        </Array>
                    </mxGeometry>
                </mxCell>
                <mxCell id="nqhKKtfY9AY7LaAZ8PM6-1799" style="edgeStyle=orthogonalEdgeStyle;rounded=0;orthogonalLoop=1;jettySize=auto;html=1;entryX=0;entryY=0.5;entryDx=0;entryDy=0;endArrow=blockThin;endFill=1;strokeColor=#FF9933;strokeWidth=2;fontFamily=Helvetica;fontSize=13;fontColor=#000000;" parent="1" source="nqhKKtfY9AY7LaAZ8PM6-1793" target="nqhKKtfY9AY7LaAZ8PM6-1797" edge="1">
                    <mxGeometry relative="1" as="geometry"/>
                </mxCell>
                <mxCell id="6Xb1M5ofrw1g_zjlxSkY-6" style="edgeStyle=orthogonalEdgeStyle;rounded=0;orthogonalLoop=1;jettySize=auto;html=1;exitX=0.75;exitY=1;exitDx=0;exitDy=0;endArrow=blockThin;endFill=1;strokeColor=#FF9933;strokeWidth=2;entryX=0.25;entryY=0;entryDx=0;entryDy=0;fontFamily=Helvetica;fontColor=#000000;" parent="1" source="nqhKKtfY9AY7LaAZ8PM6-1793" target="nqhKKtfY9AY7LaAZ8PM6-1811" edge="1">
                    <mxGeometry relative="1" as="geometry">
                        <Array as="points">
                            <mxPoint x="365" y="300"/>
                            <mxPoint x="448" y="300"/>
                        </Array>
                    </mxGeometry>
                </mxCell>
                <mxCell id="nqhKKtfY9AY7LaAZ8PM6-1793" value="Power converter 24V to 12V" style="rounded=1;whiteSpace=wrap;html=1;shadow=0;glass=0;comic=0;strokeColor=#000000;strokeWidth=1;fillColor=#ffffff;gradientColor=none;fontFamily=Helvetica;fontSize=13;fontColor=#000000;" parent="1" vertex="1">
                    <mxGeometry x="275" y="210" width="120" height="60" as="geometry"/>
                </mxCell>
                <mxCell id="nqhKKtfY9AY7LaAZ8PM6-1817" style="edgeStyle=orthogonalEdgeStyle;rounded=0;orthogonalLoop=1;jettySize=auto;html=1;entryX=0.75;entryY=0;entryDx=0;entryDy=0;endArrow=blockThin;endFill=1;strokeColor=#000000;strokeWidth=1;fontFamily=Helvetica;fontSize=13;fontColor=#000000;exitX=0;exitY=0.75;exitDx=0;exitDy=0;" parent="1" source="nqhKKtfY9AY7LaAZ8PM6-1797" target="nqhKKtfY9AY7LaAZ8PM6-1787" edge="1">
                    <mxGeometry relative="1" as="geometry">
                        <Array as="points">
                            <mxPoint x="570" y="255"/>
                            <mxPoint x="570" y="280"/>
                            <mxPoint x="380" y="280"/>
                        </Array>
                    </mxGeometry>
                </mxCell>
                <mxCell id="nqhKKtfY9AY7LaAZ8PM6-1797" value="&lt;div style=&quot;font-size: 13px&quot;&gt;&lt;font&gt;LiDAR receiver&lt;/font&gt;&lt;/div&gt;" style="rounded=1;whiteSpace=wrap;html=1;shadow=0;glass=0;comic=0;strokeColor=#000000;strokeWidth=1;fillColor=#ffffff;gradientColor=none;fontFamily=Helvetica;fontSize=13;fontColor=#000000;" parent="1" vertex="1">
                    <mxGeometry x="584.5" y="210" width="120" height="60" as="geometry"/>
                </mxCell>
                <mxCell id="6Xb1M5ofrw1g_zjlxSkY-1" style="edgeStyle=orthogonalEdgeStyle;rounded=0;orthogonalLoop=1;jettySize=auto;html=1;entryX=0.5;entryY=1;entryDx=0;entryDy=0;fontFamily=Helvetica;fontColor=#000000;strokeColor=#000000;" parent="1" source="nqhKKtfY9AY7LaAZ8PM6-1801" target="nqhKKtfY9AY7LaAZ8PM6-1783" edge="1">
                    <mxGeometry relative="1" as="geometry">
                        <Array as="points">
                            <mxPoint x="879" y="470"/>
                            <mxPoint x="879" y="470"/>
                        </Array>
                        <mxPoint x="888" y="440" as="targetPoint"/>
                    </mxGeometry>
                </mxCell>
                <mxCell id="nqhKKtfY9AY7LaAZ8PM6-1801" value="GPS Antenna" style="rounded=0;whiteSpace=wrap;html=1;shadow=0;glass=0;comic=0;strokeColor=#000000;strokeWidth=1;fillColor=#ffffff;gradientColor=none;fontFamily=Helvetica;fontSize=13;fontColor=#000000;" parent="1" vertex="1">
                    <mxGeometry x="827.92" y="547.5" width="101.67" height="50" as="geometry"/>
                </mxCell>
                <mxCell id="nqhKKtfY9AY7LaAZ8PM6-1804" style="edgeStyle=orthogonalEdgeStyle;rounded=0;orthogonalLoop=1;jettySize=auto;html=1;endArrow=blockThin;endFill=1;strokeColor=#000000;strokeWidth=1;fontFamily=Helvetica;fontSize=13;fontColor=#000000;" parent="1" source="nqhKKtfY9AY7LaAZ8PM6-1802" target="nqhKKtfY9AY7LaAZ8PM6-1797" edge="1">
                    <mxGeometry relative="1" as="geometry"/>
                </mxCell>
                <mxCell id="nqhKKtfY9AY7LaAZ8PM6-1802" value="&lt;div&gt;&lt;font style=&quot;font-size: 14px&quot;&gt;OS1-128 - LiDAR&lt;/font&gt;&lt;/div&gt;&lt;font style=&quot;font-size: 12px&quot;&gt;&lt;b&gt;&lt;font style=&quot;font-size: 12px&quot;&gt;&lt;/font&gt;&lt;/b&gt;&lt;/font&gt;" style="rounded=0;whiteSpace=wrap;html=1;shadow=0;glass=0;comic=0;strokeColor=#000000;strokeWidth=1;fillColor=#ffffff;gradientColor=none;fontFamily=Helvetica;fontSize=13;fontColor=#000000;" parent="1" vertex="1">
                    <mxGeometry x="810" y="210" width="137.51" height="60" as="geometry"/>
                </mxCell>
                <mxCell id="6Xb1M5ofrw1g_zjlxSkY-7" style="edgeStyle=orthogonalEdgeStyle;rounded=0;orthogonalLoop=1;jettySize=auto;html=1;exitX=0.75;exitY=0;exitDx=0;exitDy=0;endArrow=blockThin;endFill=1;strokeColor=#000000;strokeWidth=1;fontFamily=Helvetica;fontColor=#000000;" parent="1" source="nqhKKtfY9AY7LaAZ8PM6-1811" target="nqhKKtfY9AY7LaAZ8PM6-1782" edge="1">
                    <mxGeometry relative="1" as="geometry"/>
                </mxCell>
                <mxCell id="nqhKKtfY9AY7LaAZ8PM6-1811" value="USB Switch" style="rounded=0;whiteSpace=wrap;html=1;shadow=0;glass=0;comic=0;strokeColor=#000000;strokeWidth=1;fillColor=#ffffff;gradientColor=none;fontFamily=Helvetica;fontSize=13;fontColor=#000000;" parent="1" vertex="1">
                    <mxGeometry x="425" y="552.5" width="90" height="45" as="geometry"/>
                </mxCell>
                <mxCell id="6Xb1M5ofrw1g_zjlxSkY-8" style="edgeStyle=orthogonalEdgeStyle;rounded=0;orthogonalLoop=1;jettySize=auto;html=1;endArrow=blockThin;endFill=1;strokeColor=#000000;strokeWidth=1;fontFamily=Helvetica;fontColor=#000000;" parent="1" source="nqhKKtfY9AY7LaAZ8PM6-1814" target="nqhKKtfY9AY7LaAZ8PM6-1811" edge="1">
                    <mxGeometry relative="1" as="geometry"/>
                </mxCell>
                <mxCell id="nqhKKtfY9AY7LaAZ8PM6-1814" value="&lt;font style=&quot;font-size: 14px&quot;&gt;Emlid - GPS&lt;/font&gt;&lt;font style=&quot;font-size: 14px&quot;&gt;&lt;br&gt;&lt;/font&gt;" style="rounded=0;whiteSpace=wrap;html=1;shadow=0;glass=0;comic=0;strokeColor=#000000;strokeWidth=1;fillColor=#ffffff;gradientColor=none;fontFamily=Helvetica;fontSize=13;fontColor=#000000;" parent="1" vertex="1">
                    <mxGeometry x="627.51" y="548.75" width="132.49" height="52.5" as="geometry"/>
                </mxCell>
                <mxCell id="nqhKKtfY9AY7LaAZ8PM6-1826" style="edgeStyle=orthogonalEdgeStyle;rounded=0;orthogonalLoop=1;jettySize=auto;html=1;entryX=0.25;entryY=1;entryDx=0;entryDy=0;endArrow=none;endFill=0;strokeColor=#000000;strokeWidth=1;fontFamily=Helvetica;fontSize=13;startArrow=blockThin;startFill=1;exitX=0.5;exitY=0;exitDx=0;exitDy=0;fontColor=#000000;" parent="1" source="nqhKKtfY9AY7LaAZ8PM6-1823" target="nqhKKtfY9AY7LaAZ8PM6-1787" edge="1">
                    <mxGeometry relative="1" as="geometry">
                        <Array as="points">
                            <mxPoint x="36" y="490"/>
                            <mxPoint x="290" y="490"/>
                        </Array>
                    </mxGeometry>
                </mxCell>
                <mxCell id="nqhKKtfY9AY7LaAZ8PM6-1823" value="Thunderbolt converter" style="rounded=0;whiteSpace=wrap;html=1;shadow=0;glass=0;comic=0;strokeColor=#000000;strokeWidth=1;fillColor=#ffffff;gradientColor=none;fontFamily=Helvetica;fontSize=13;fontColor=#000000;" parent="1" vertex="1">
                    <mxGeometry x="-12.75" y="547.5" width="97.5" height="45" as="geometry"/>
                </mxCell>
                <mxCell id="nqhKKtfY9AY7LaAZ8PM6-1830" value="&lt;div style=&quot;font-size: 13px;&quot;&gt;USB&lt;/div&gt;" style="text;html=1;align=center;verticalAlign=middle;resizable=0;points=[];autosize=1;fontFamily=Helvetica;fontSize=13;fontColor=#000000;" parent="1" vertex="1">
                    <mxGeometry x="550" y="480" width="40" height="20" as="geometry"/>
                </mxCell>
                <mxCell id="nqhKKtfY9AY7LaAZ8PM6-1832" value="&lt;div&gt;Custom&lt;/div&gt;" style="text;html=1;align=center;verticalAlign=middle;resizable=0;points=[];autosize=1;fontFamily=Helvetica;fontSize=13;fontColor=#000000;" parent="1" vertex="1">
                    <mxGeometry x="882.51" y="489.99999999999994" width="70" height="20" as="geometry"/>
                </mxCell>
                <mxCell id="nqhKKtfY9AY7LaAZ8PM6-1833" value="Pins" style="text;html=1;align=center;verticalAlign=middle;resizable=0;points=[];autosize=1;fontFamily=Helvetica;fontSize=13;fontColor=#000000;" parent="1" vertex="1">
                    <mxGeometry x="760" y="390" width="40" height="20" as="geometry"/>
                </mxCell>
                <mxCell id="nqhKKtfY9AY7LaAZ8PM6-1834" value="Custom" style="text;html=1;align=center;verticalAlign=middle;resizable=0;points=[];autosize=1;fontFamily=Helvetica;fontSize=13;fontColor=#000000;" parent="1" vertex="1">
                    <mxGeometry x="725" y="220" width="70" height="20" as="geometry"/>
                </mxCell>
                <mxCell id="nqhKKtfY9AY7LaAZ8PM6-1837" value="Ethernet (1GB)" style="text;html=1;align=center;verticalAlign=middle;resizable=0;points=[];autosize=1;fontFamily=Helvetica;fontSize=13;fontColor=#000000;" parent="1" vertex="1">
                    <mxGeometry x="455" y="260" width="120" height="20" as="geometry"/>
                </mxCell>
                <mxCell id="nqhKKtfY9AY7LaAZ8PM6-1838" value="Ethernet (1GB)" style="text;html=1;align=center;verticalAlign=middle;resizable=0;points=[];autosize=1;fontFamily=Helvetica;fontSize=13;fontColor=#000000;" parent="1" vertex="1">
                    <mxGeometry x="455" y="390" width="120" height="20" as="geometry"/>
                </mxCell>
                <mxCell id="nqhKKtfY9AY7LaAZ8PM6-1841" value="Ethernet (1GB)" style="text;html=1;align=center;verticalAlign=middle;resizable=0;points=[];autosize=1;fontFamily=Helvetica;fontSize=13;fontColor=#000000;" parent="1" vertex="1">
                    <mxGeometry x="105" y="390" width="120" height="20" as="geometry"/>
                </mxCell>
                <mxCell id="nqhKKtfY9AY7LaAZ8PM6-1844" value="Ethernet (10GB)" style="text;html=1;align=center;verticalAlign=middle;resizable=0;points=[];autosize=1;fontFamily=Helvetica;fontSize=13;fontColor=#000000;" parent="1" vertex="1">
                    <mxGeometry x="105" y="470" width="120" height="20" as="geometry"/>
                </mxCell>
                <mxCell id="nqhKKtfY9AY7LaAZ8PM6-1850" style="edgeStyle=orthogonalEdgeStyle;rounded=0;orthogonalLoop=1;jettySize=auto;html=1;endArrow=none;endFill=0;strokeColor=#000000;strokeWidth=1;fontFamily=Helvetica;fontSize=13;dashed=1;startArrow=blockThin;startFill=1;fontColor=#000000;" parent="1" source="nqhKKtfY9AY7LaAZ8PM6-1847" target="nqhKKtfY9AY7LaAZ8PM6-1787" edge="1">
                    <mxGeometry relative="1" as="geometry">
                        <Array as="points">
                            <mxPoint x="370" y="480"/>
                            <mxPoint x="370" y="480"/>
                        </Array>
                    </mxGeometry>
                </mxCell>
                <mxCell id="6Xb1M5ofrw1g_zjlxSkY-2" style="edgeStyle=orthogonalEdgeStyle;rounded=0;orthogonalLoop=1;jettySize=auto;html=1;endArrow=none;endFill=0;dashed=1;startArrow=blockThin;startFill=1;fontFamily=Helvetica;fontColor=#000000;strokeColor=#000000;" parent="1" source="nqhKKtfY9AY7LaAZ8PM6-1847" target="nqhKKtfY9AY7LaAZ8PM6-1823" edge="1">
                    <mxGeometry relative="1" as="geometry"/>
                </mxCell>
                <mxCell id="nqhKKtfY9AY7LaAZ8PM6-1847" value="&lt;div&gt;&lt;font style=&quot;font-size: 14px&quot;&gt;Host Machine&lt;br&gt;&lt;/font&gt;&lt;/div&gt;" style="rounded=1;whiteSpace=wrap;html=1;shadow=0;glass=0;comic=0;strokeColor=#000000;strokeWidth=1;fillColor=#ffffff;gradientColor=none;fontFamily=Helvetica;fontSize=13;FType=g;fontColor=#000000;" parent="1" vertex="1">
                    <mxGeometry x="234.75" y="540" width="140" height="60" as="geometry"/>
                </mxCell>
                <mxCell id="6Xb1M5ofrw1g_zjlxSkY-3" value="Thunderbolt (10GB)" style="text;html=1;align=center;verticalAlign=middle;resizable=0;points=[];autosize=1;fontFamily=Helvetica;fontSize=13;fontColor=#000000;" parent="1" vertex="1">
                    <mxGeometry x="84.75" y="547.5" width="150" height="20" as="geometry"/>
                </mxCell>
                <mxCell id="6Xb1M5ofrw1g_zjlxSkY-4" value="Ethernet (1GB)" style="text;html=1;align=center;verticalAlign=middle;resizable=0;points=[];autosize=1;fontFamily=Helvetica;fontSize=13;fontColor=#000000;" parent="1" vertex="1">
                    <mxGeometry x="245" y="510" width="120" height="20" as="geometry"/>
                </mxCell>
                <mxCell id="6Xb1M5ofrw1g_zjlxSkY-9" value="&lt;div style=&quot;font-size: 13px;&quot;&gt;USB&lt;/div&gt;" style="text;html=1;align=center;verticalAlign=middle;resizable=0;points=[];autosize=1;fontFamily=Helvetica;fontSize=13;fontColor=#000000;" parent="1" vertex="1">
                    <mxGeometry x="550" y="552.5" width="40" height="20" as="geometry"/>
                </mxCell>
                <mxCell id="5" style="edgeStyle=orthogonalEdgeStyle;rounded=0;orthogonalLoop=1;jettySize=auto;html=1;strokeWidth=1;strokeColor=#000000;endArrow=blockThin;endFill=1;" parent="1" source="2" edge="1">
                    <mxGeometry relative="1" as="geometry">
                        <mxPoint x="400" y="380" as="targetPoint"/>
                    </mxGeometry>
                </mxCell>
                <mxCell id="2" value="&lt;div style=&quot;font-size: 13px&quot;&gt;&lt;font&gt;LiDAR receiver&lt;/font&gt;&lt;/div&gt;" style="rounded=1;whiteSpace=wrap;html=1;shadow=0;glass=0;comic=0;strokeColor=#000000;strokeWidth=1;fillColor=#ffffff;gradientColor=none;fontFamily=Helvetica;fontSize=13;fontColor=#000000;" parent="1" vertex="1">
                    <mxGeometry x="584.5" y="280" width="120" height="60" as="geometry"/>
                </mxCell>
                <mxCell id="6" value="Ethernet (1GB)" style="text;html=1;align=center;verticalAlign=middle;resizable=0;points=[];autosize=1;fontFamily=Helvetica;fontSize=13;fontColor=#000000;" parent="1" vertex="1">
                    <mxGeometry x="455" y="290" width="120" height="20" as="geometry"/>
                </mxCell>
                <mxCell id="12" value="" style="edgeStyle=orthogonalEdgeStyle;rounded=0;orthogonalLoop=1;jettySize=auto;html=1;endArrow=blockThin;endFill=1;strokeColor=#000000;strokeWidth=1;entryX=1;entryY=0.5;entryDx=0;entryDy=0;" parent="1" source="9" target="2" edge="1">
                    <mxGeometry relative="1" as="geometry"/>
                </mxCell>
                <mxCell id="9" value="&lt;div&gt;&lt;font style=&quot;font-size: 14px&quot;&gt;OS1-64 - LiDAR&lt;/font&gt;&lt;/div&gt;&lt;font style=&quot;font-size: 12px&quot;&gt;&lt;b&gt;&lt;font style=&quot;font-size: 12px&quot;&gt;&lt;/font&gt;&lt;/b&gt;&lt;/font&gt;" style="rounded=0;whiteSpace=wrap;html=1;shadow=0;glass=0;comic=0;strokeColor=#000000;strokeWidth=1;fillColor=#ffffff;gradientColor=none;fontFamily=Helvetica;fontSize=13;fontColor=#000000;" parent="1" vertex="1">
                    <mxGeometry x="810" y="280" width="137.51" height="60" as="geometry"/>
                </mxCell>
                <mxCell id="10" value="Custom" style="text;html=1;align=center;verticalAlign=middle;resizable=0;points=[];autosize=1;fontFamily=Helvetica;fontSize=13;fontColor=#000000;" parent="1" vertex="1">
                    <mxGeometry x="725" y="290" width="70" height="20" as="geometry"/>
                </mxCell>
            </root>
        </mxGraphModel>
    </diagram>
</mxfile>